<svg version="1.0" xmlns="http://www.w3.org/2000/svg" viewBox="0 0 186 139"><path fill="#fff" d="M26.8 10.2h95v26.2h-13.4l-1-6.9-1-6.9H79.1v36.2l3.2-1c1.7-.6 9.9-1.2 18.3-1.7 19.2-1 28.5 1.4 36.1 9 6.9 6.9 8.5 12.8 9.5 33.8.8 19.2.3 17.8 9.4 19.2 2.1.3 2.9 1.7 3.2 5.7l.4 5.1h-42.9v-4.8c0-5.2.4-5.5 8.7-6.9l5.1-.8V100c0-20.3-2.2-26.2-10.9-29.6-6.6-2.8-17.8-2.9-30.5-.6l-9 1.7-.4 22.3-.3 22.3 5.1.8c8.5 1.5 9 1.7 8.4 6.5l-.4 4.5-21.1.4-21.1.4.4-5.2c.4-4.8.8-5.2 5.7-6.1 2.9-.4 5.8-1.4 6.6-2.2.8-.8 1.1-18.9 1-46.7l-.4-45.3-10.6-.4-10.8-.4v3.9c0 8.8-1.1 10.1-8.4 10.1h-6.8V10.2z"/></svg>